<svg width="40" height="40" viewBox="0 0 40 40" fill="none" xmlns="http://www.w3.org/2000/svg">
<path d="M2.99927 17.2747L5.39292 35.6741L23.5039 37.7794L23.7635 21.3122L2.99927 17.2747Z" fill="#692917"/>
<path d="M23.5039 37.7794L36.7699 28.0606L38.1542 13.2661L23.7635 21.3122L23.5039 37.7794Z" fill="#502B23"/>
<path d="M13.9582 4.58545L0 11.5934L25.0901 16.4672L40 6.9791L13.9582 4.58545ZM4.00866 10.9589L14.3042 5.45063L37.0007 7.72892L24.744 14.8811L4.00866 10.9589Z" fill="#845C58"/>
<path d="M23.7635 21.3122L23.5039 37.7794L24.5421 36.9142L23.7635 21.3122Z" fill="#925045"/>
<path d="M4.00867 30.5407L24.0231 34.8089V39.7404L4.47009 35.4722L4.00867 30.5407Z" fill="#D2AB8B"/>
<path d="M24.0231 34.8089L38.1543 24.5133V28.9834L24.0231 39.7404V34.8089Z" fill="#AA795C"/>
<path d="M24.0231 34.8089L38.1543 24.5133H37.1161L24.0231 33.886V34.8089Z" fill="#845C58"/>
<path d="M25.0901 34.088L4.64312 29.9928L4.00867 30.5407L24.0231 34.8089L25.0901 34.088Z" fill="#EBD1B4"/>
<path d="M25.0901 34.088V38.9329L24.0231 39.7404V34.8089L25.0901 34.088Z" fill="#C39774"/>
<path d="M17.7649 3.95097L14.5349 5.24873L12.4585 4.06632L14.5061 2.50901L17.9668 1.90338L19.726 2.91275L17.7649 3.95097Z" fill="#7CFFF9"/>
<path d="M17.7649 3.95099L18.8897 6.11393L14.16 7.52705L14.535 5.24875L17.7649 3.95099Z" fill="#00A5EC"/>
<path d="M14.535 5.24875L12.4585 4.06635L11.3915 5.94089L14.16 7.52705L14.535 5.24875Z" fill="#00DBFF"/>
<path d="M19.726 2.91275L21.2544 3.80677L18.8896 6.1139L17.7649 3.95096L19.726 2.91275Z" fill="#00DCFF"/>
<path d="M18.8897 6.11389L16.9863 11.2184L14.16 7.52701L18.8897 6.11389Z" fill="#1070C4"/>
<path d="M21.2545 3.80676L16.9863 11.2184L18.8897 6.1139L21.2545 3.80676Z" fill="#2181E5"/>
<path d="M11.3915 5.94086L16.9863 11.2184L14.16 7.52701L11.3915 5.94086Z" fill="#00AFFF"/>
<path d="M19.726 2.91275L12.4585 4.06632L14.5061 2.50901L17.9668 1.90338L19.726 2.91275Z" fill="#B6FFF9"/>
<path d="M6.46001 8.07497L9.45928 5.36409V2.36481L6.86375 3.60489L4.35474 7.03676V9.60345L6.46001 8.07497Z" fill="#7CFFF9"/>
<path d="M6.45996 8.07496L7.90192 10.6705L11.8529 6.40229L9.45923 5.36407L6.45996 8.07496Z" fill="#00A5EC"/>
<path d="M9.45923 5.36409V2.36481H11.8529V6.4023L9.45923 5.36409Z" fill="#00DBFF"/>
<path d="M4.35474 9.60343V11.824L7.90197 10.6705L6.46001 8.07495L4.35474 9.60343Z" fill="#00DCFF"/>
<path d="M7.90198 10.6705L13.8428 11.8241L11.8529 6.40228L7.90198 10.6705Z" fill="#105BC4"/>
<path d="M4.35474 11.8241H13.8428L7.90197 10.6705L4.35474 11.8241Z" fill="#2181E5"/>
<path d="M11.8529 2.36481L13.8428 11.8241L11.8529 6.4023V2.36481Z" fill="#00AFFF"/>
<path d="M4.35474 9.60345L9.45928 2.36481L6.86375 3.60489L4.35474 7.03676V9.60345Z" fill="#B6FFF9"/>
<path d="M26.0994 3.66258L22.1196 2.85508L20.62 0.230714L23.5039 0L27.3684 1.73035L28.6373 3.95097L26.0994 3.66258Z" fill="#7CFFF9"/>
<path d="M26.0995 3.66257L26.1283 6.66185L20.5624 4.9315L22.1197 2.85507L26.0995 3.66257Z" fill="#00A5EC"/>
<path d="M22.1196 2.85508L20.62 0.230713L18.5436 1.41312L20.5623 4.93151L22.1196 2.85508Z" fill="#00DBFF"/>
<path d="M28.6373 3.95099L29.7621 5.88322L26.1283 6.66188L26.0995 3.6626L28.6373 3.95099Z" fill="#00DCFF"/>
<path d="M26.1283 6.66187L21.5718 10.6128L20.5624 4.93152L26.1283 6.66187Z" fill="#1070C4"/>
<path d="M29.7621 5.88318L21.5718 10.6128L26.1284 6.66184L29.7621 5.88318Z" fill="#2181E5"/>
<path d="M18.5436 1.41312L21.5717 10.6128L20.5623 4.9315L18.5436 1.41312Z" fill="#00AFFF"/>
<path d="M28.6373 3.95097L20.62 0.230714L23.5039 0L27.3684 1.73035L28.6373 3.95097Z" fill="#B6FFF9"/>
<path d="M29.8198 5.91206L33.6554 7.23866L36.2797 5.73902L33.9149 4.09519L29.7044 3.60492L27.4838 4.84501L29.8198 5.91206Z" fill="#7CFFF9"/>
<path d="M29.8198 5.91205L28.2625 8.4499L33.9149 9.83418L33.6554 7.23865L29.8198 5.91205Z" fill="#00A5EC"/>
<path d="M33.6554 7.23865L36.2798 5.73901L37.4622 7.84428L33.9149 9.83418L33.6554 7.23865Z" fill="#00DBFF"/>
<path d="M27.4838 4.84503L25.5227 5.94092L28.2624 8.44993L29.8198 5.91208L27.4838 4.84503Z" fill="#00DCFF"/>
<path d="M28.2625 8.44989L30.1658 14.1889L33.9149 9.83417L28.2625 8.44989Z" fill="#1070C4"/>
<path d="M25.5227 5.94092L30.1658 14.1889L28.2624 8.44993L25.5227 5.94092Z" fill="#2181E5"/>
<path d="M37.4621 7.8443L30.1658 14.1889L33.9149 9.83421L37.4621 7.8443Z" fill="#00AFFF"/>
<path d="M27.4838 4.84501L36.2797 5.73902L33.9149 4.09519L29.7044 3.60492L27.4838 4.84501Z" fill="#B6FFF9"/>
<path d="M15.6308 10.0937L14.7945 13.2949L11.8817 14.3331L9.8053 12.2278L11.0454 8.13263L14.1889 7.09442L15.6308 10.0937Z" fill="#B6FFF9"/>
<path d="M15.6309 10.0937H17.6208L16.6114 14.6791L14.7946 13.2948L15.6309 10.0937Z" fill="#00A5EC"/>
<path d="M16.6114 14.6791L11.7953 15.9769L11.8818 14.3331L14.7946 13.2949L16.6114 14.6791Z" fill="#00DCFF"/>
<path d="M9.8053 12.2278L11.7952 15.9769L11.8817 14.333L9.8053 12.2278Z" fill="#00A5EC"/>
<path d="M14.1888 7.09442L15.6308 6.633L17.6207 10.0937H15.6308L14.1888 7.09442Z" fill="#00DBFF"/>
<path d="M16.6113 14.6791L18.8608 12.7757L17.6207 10.0937L16.6113 14.6791Z" fill="#105BC4"/>
<path d="M14.7945 13.2948L11.0454 8.13263L9.8053 12.2278L11.8817 14.3331L14.7945 13.2948Z" fill="#7CFFF9"/>
<path d="M20.6489 9.94954L23.5617 12.92L27.4261 12.2278L28.3778 8.56526L24.4268 4.87384L20.3317 5.71018L20.6489 9.94954Z" fill="#B6FFF9"/>
<path d="M20.6489 9.94952L18.486 11.2184L22.4658 15.602L23.5617 12.92L20.6489 9.94952Z" fill="#00A5EC"/>
<path d="M22.4657 15.602L28.6084 13.9582L27.426 12.2278L23.5616 12.92L22.4657 15.602Z" fill="#00DCFF"/>
<path d="M28.3779 8.56525L28.6086 13.9582L27.4261 12.2278L28.3779 8.56525Z" fill="#00A5EC"/>
<path d="M20.3316 5.71014L18.4282 6.11389L18.4859 11.2184L20.6488 9.94951L20.3316 5.71014Z" fill="#00DBFF"/>
<path d="M22.4658 15.602L18.7744 14.9099L18.486 11.2184L22.4658 15.602Z" fill="#105BC4"/>
<path d="M23.5616 12.92L24.4268 4.87384L28.3778 8.56526L27.4261 12.2278L23.5616 12.92Z" fill="#7CFFF9"/>
<path d="M25.0901 21.5717L39.5962 12.372L40 6.97906L25.0901 16.496V21.5717Z" fill="#AA795C"/>
<path d="M37.7217 7.32514L24.744 14.881L25.0901 16.496L40 6.97906L37.7217 7.32514Z" fill="#845C58"/>
<path d="M4.00866 10.9589L24.744 14.881L25.0901 16.496L0 11.5934L2.01875 10.584L4.00866 10.9589Z" fill="#EBD1B4"/>
<path d="M0 11.5934L25.0901 16.4961V21.5718L0.663298 16.8421L0 11.5934Z" fill="#D2AB8B"/>
<path d="M17.1017 26.1572C17.1017 23.8212 15.2272 21.5718 12.9489 21.1103C10.6706 20.6489 8.79602 22.1774 8.79602 24.5134C8.79602 26.8493 10.6706 29.0988 12.9489 29.5602C14.0159 29.7621 14.9965 29.5602 15.7751 28.9834C15.9193 28.8681 15.9481 28.6374 15.8039 28.4355C15.6598 28.2625 15.429 28.2048 15.2848 28.2913C14.6504 28.7527 13.814 28.9258 12.9777 28.7527C11.9683 28.5508 11.0743 27.9164 10.4399 27.1089L12.2279 24.6287V25.9553C12.2279 26.5898 12.4874 26.8493 12.6893 26.9359C12.8912 27.0224 13.2084 27.0512 13.5545 26.5898L14.535 25.2055C14.5639 25.1767 14.5927 25.119 14.6215 25.0901V25.8976C14.6215 26.4744 14.8523 27.0224 15.256 27.3108C15.6309 27.5992 16.0923 27.6568 16.4672 27.5126C16.8998 27.3108 17.1306 26.8205 17.1017 26.1572ZM16.0347 26.7628C15.8905 26.8205 15.7174 26.7917 15.5732 26.7051C15.4002 26.5609 15.3137 26.3302 15.3137 26.0418V25.119C15.3137 24.6864 15.1406 24.3115 14.8523 24.1961C14.362 23.9366 13.9871 24.4845 13.8429 24.6864L12.9489 25.9265V24.1961C12.9489 23.7924 12.8047 23.5328 12.574 23.4175C12.4009 23.331 12.1702 23.3021 11.9395 23.6193L9.97842 26.3879C9.71887 25.84 9.57468 25.2632 9.57468 24.6864C9.57468 22.783 11.1032 21.5429 12.9777 21.9178C14.8523 22.2927 16.3807 24.1384 16.3807 26.0418C16.3807 26.3879 16.2654 26.6763 16.0347 26.7628Z" fill="white"/>
<path d="M9.45923 5.36407C9.9495 5.71015 11.1896 6.25809 11.8529 6.40229C11.3915 5.94086 9.45923 5.36407 9.45923 5.36407Z" fill="#7CFFF9"/>
<path d="M6.45996 8.07495C6.86371 9.25736 7.93075 10.6705 7.93075 10.6705C7.58468 9.54575 6.45996 8.07495 6.45996 8.07495Z" fill="#7CFFF9"/>
<path d="M22.1197 2.85507C21.5429 3.3165 20.5624 4.96034 20.5624 4.96034C21.2257 4.41239 22.1197 2.85507 22.1197 2.85507Z" fill="#7CFFF9"/>
<path d="M20.6489 9.94952C19.7549 10.2091 18.486 11.1896 18.486 11.1896C19.4088 10.9301 20.6489 9.94952 20.6489 9.94952Z" fill="#7CFFF9"/>
<path d="M29.8198 5.91205C29.2142 6.51767 28.2913 8.24803 28.2625 8.4499C29.243 7.52704 29.8198 5.91205 29.8198 5.91205Z" fill="#7CFFF9"/>
</svg>
